<svg xmlns="http://www.w3.org/2000/svg" version="1.1" xmlns:xlink="http://www.w3.org/1999/xlink" xmlns:svgjs="http://svgjs.dev/svgjs" width="2000" height="2330" viewBox="0 0 2000 2330"><g transform="matrix(1,0,0,1,-0.040190223227455135,0.9433198380565955)"><svg viewBox="0 0 212 247" data-background-color="#003366" preserveAspectRatio="xMidYMid meet" height="2330" width="2000" xmlns="http://www.w3.org/2000/svg" xmlns:xlink="http://www.w3.org/1999/xlink"><g id="tight-bounds" transform="matrix(1,0,0,1,0.004260163662110017,-0.09999999999999432)"><svg viewBox="0 0 211.99147203561023 247.2" height="247.2" width="211.99147203561023"><g><svg viewBox="0 0 395.5199999999999 461.20979802232887" height="247.2" width="211.99147203561023"><g transform="matrix(1,0,0,1,0,207.56481804795752)"><svg viewBox="0 0 395.5199999999999 253.64497997437138" height="253.64497997437138" width="395.5199999999999"><g id="textblocktransform"><svg viewBox="0 0 395.5199999999999 253.64497997437138" height="253.64497997437138" width="395.5199999999999" id="textblock"><g><svg viewBox="0 0 395.5199999999999 136.80398213146137" height="136.80398213146137" width="395.5199999999999"><g transform="matrix(1,0,0,1,0,0)"><svg width="395.5199999999999" viewBox="3.5199999809265137 -46.779998779296875 153.00999450683594 52.93000030517578" height="136.80398213146137" data-palette-color="#3d9970"><path d="M14.7 2.29L14.7 2.44Q14.7 3.22 14.16 3.86 13.62 4.49 13.23 5.08L13.23 5.08Q12.55 5.42 11.94 5.49 11.33 5.57 10.64 5.81L10.64 5.81Q10.4 5.86 10.11 6.15L10.11 6.15Q9.72 6.1 9.33 5.83 8.94 5.57 8.54 5.47L8.54 5.47Q8.01 5.27 7.15 5.22 6.3 5.18 5.91 4.74L5.91 4.74Q5.22 4.05 4.76 2.93 4.3 1.81 4.03 0.54 3.76-0.73 3.64-1.98 3.52-3.22 3.52-4.15L3.52-4.15Q3.52-5.71 3.71-7.28 3.91-8.84 4.3-10.3L4.3-10.3 4.3-10.55Q4.3-10.79 4.32-10.96 4.35-11.13 4.35-11.38L4.35-11.38Q4.35-11.52 4.32-11.67 4.3-11.82 4.15-11.91L4.15-11.91Q4.79-13.53 5.08-15.23 5.37-16.94 5.54-18.68 5.71-20.41 5.93-22.14 6.15-23.88 6.59-25.54L6.59-25.54Q6.54-25.83 6.52-26.17 6.49-26.51 6.49-26.81L6.49-26.81Q6.49-27.69 6.69-28.54 6.88-29.39 6.93-30.32L6.93-30.32Q6.98-30.62 6.93-30.93 6.88-31.25 6.88-31.59L6.88-31.59Q6.88-33.74 7.1-35.79 7.32-37.84 7.32-39.94L7.32-39.94Q7.32-41.06 7.15-42.11 6.98-43.16 6.98-44.24L6.98-44.24Q6.98-44.73 7.03-45.19 7.08-45.65 7.32-46.04L7.32-46.04Q8.4-46.78 9.86-46.78L9.86-46.78Q10.94-46.78 11.72-46.19L11.72-46.19Q11.67-46.09 11.67-45.9L11.67-45.9Q11.67-45.65 11.72-45.46 11.77-45.26 11.77-45.02L11.77-45.02 11.77-44.82Q11.77-44.73 11.72-44.63L11.72-44.63Q12.06-44.04 12.18-43.38 12.3-42.72 12.3-42.04L12.3-42.04Q12.3-41.41 12.26-40.8 12.21-40.19 12.21-39.55L12.21-39.55Q12.21-38.67 12.23-37.79 12.26-36.91 12.26-36.04L12.26-36.04Q12.26-33.69 12.04-31.42 11.82-29.15 11.72-26.81L11.72-26.81Q11.62-24.8 11.21-22.9 10.79-21 10.64-19.04L10.64-19.04Q10.6-18.65 10.62-18.29 10.64-17.92 10.64-17.48L10.64-17.48Q10.64-16.36 10.21-15.26 9.77-14.16 9.77-12.94L9.77-12.94Q9.77-12.35 9.96-11.91L9.96-11.91Q9.67-11.13 9.45-10.06 9.23-8.98 9.06-7.84 8.89-6.69 8.79-5.59 8.69-4.49 8.69-3.66L8.69-3.66Q8.69-2.49 8.98-1.29 9.28-0.1 9.96 0.88L9.96 0.88Q10.45 1.03 11.13 1.03 11.82 1.03 12.5 1.07 13.18 1.12 13.77 1.32 14.36 1.51 14.65 2.1L14.65 2.1Q14.7 2.2 14.7 2.29L14.7 2.29ZM45.16-6.15L45.16-6.15Q45.16-5.32 44.75-4.71 44.33-4.1 44.43-3.22L44.43-3.22Q43.75-2.83 43.31-2.2 42.87-1.56 42.48-0.88L42.48-0.88Q39.26 1.22 35.57 2.51 31.88 3.81 27.98 3.81L27.98 3.81Q27.73 3.81 27.54 3.59 27.34 3.37 27.15 3.13 26.95 2.88 26.73 2.66 26.51 2.44 26.22 2.44L26.22 2.44Q25.88 2.44 25.68 2.59L25.68 2.59Q25.68 2.49 25.71 2.42 25.73 2.34 25.73 2.25L25.73 2.25Q25.73 1.66 25.58 1.05 25.44 0.44 25.44-0.15L25.44-0.15Q25.44-0.83 25.68-1.27L25.68-1.27 26.27-1.27Q26.76-1.27 27.22-1.34 27.68-1.42 28.22-1.42L28.22-1.42Q28.76-1.42 29.2-1.12L29.2-1.12Q31.88-1.22 34.3-2.12 36.72-3.03 39.21-3.91L39.21-3.91Q39.6-4.44 39.67-5.1 39.74-5.76 40.04-6.35L40.04-6.35Q38.77-7.42 37.47-8.03 36.18-8.64 34.47-8.45L34.47-8.45Q33.44-9.08 32.3-9.18 31.15-9.28 29.98-9.47L29.98-9.47Q29.68-9.52 29.37-9.59 29.05-9.67 28.71-9.67L28.71-9.67Q28.46-9.67 28.24-9.55 28.02-9.42 28.12-9.18L28.12-9.18Q27.88-9.57 27.46-9.64 27.05-9.72 26.76-10.01L26.76-10.01Q25.19-10.11 24.02-10.57 22.85-11.04 21.43-11.62L21.43-11.62Q21.04-11.77 20.68-11.84 20.31-11.91 19.97-12.11L19.97-12.11Q19.09-12.55 18.55-13.28 18.02-14.01 17.7-14.92 17.38-15.82 17.23-16.8 17.09-17.77 16.94-18.6L16.94-18.6Q17.38-19.38 17.75-20.21 18.11-21.04 18.36-21.97L18.36-21.97Q18.65-22.12 18.94-22.22 19.24-22.31 19.58-22.46L19.58-22.46Q19.53-22.56 19.53-22.71L19.53-22.71Q19.53-22.95 19.7-23.19 19.87-23.44 19.77-23.68L19.77-23.68Q20.85-24.66 21.85-25.71 22.85-26.76 23.58-28.03L23.58-28.03Q24.31-28.27 24.75-28.76 25.19-29.25 25.63-29.76 26.07-30.27 26.61-30.69 27.15-31.1 27.98-31.2L27.98-31.2Q28.17-31.54 28.51-31.76 28.85-31.98 29.2-32.18 29.54-32.37 29.83-32.62 30.12-32.86 30.27-33.3L30.27-33.3Q31.05-33.3 31.71-33.59 32.37-33.89 33.01-34.23 33.64-34.57 34.3-34.86 34.96-35.16 35.74-35.16L35.74-35.16Q35.94-35.16 36.13-35.13 36.33-35.11 36.57-35.06L36.57-35.06Q36.91-34.72 37.03-34.25 37.16-33.79 37.2-33.25 37.25-32.71 37.28-32.18 37.3-31.64 37.45-31.2L37.45-31.2Q37.01-30.37 36.5-29.54 35.98-28.71 35.15-28.27L35.15-28.27 35.06-28.27Q34.71-28.22 34.42-28.42 34.13-28.61 33.74-28.61L33.74-28.61Q33.49-28.61 33.35-28.47L33.35-28.47 33.1-28.22Q33.01-28.13 32.83-28.03 32.66-27.93 32.37-28.03L32.37-28.03Q31.69-27.78 31.83-27.2L31.83-27.2Q30.91-27.1 30.27-26.64 29.64-26.17 29.1-25.61 28.56-25.05 28.02-24.58 27.49-24.12 26.76-24.07L26.76-24.07Q25.93-22.61 24.73-21.48 23.53-20.36 22.75-18.95L22.75-18.95Q22.9-18.55 22.95-18.12 23-17.68 23.09-17.19L23.09-17.19Q23.53-16.6 24.14-16.16 24.75-15.72 25.34-15.28L25.34-15.28 25.49-15.28Q26.46-15.28 27.29-14.92 28.12-14.55 29.05-14.55L29.05-14.55Q29.54-14.55 29.88-14.75L29.88-14.75Q31.15-14.45 32.39-14.26 33.64-14.06 34.91-13.96L34.91-13.96Q35.54-13.87 36.2-13.87 36.86-13.87 37.45-13.72L37.45-13.72Q37.99-13.57 38.52-13.35 39.06-13.13 39.6-12.89L39.6-12.89Q40.72-12.4 41.72-11.82 42.72-11.23 43.5-10.42 44.28-9.62 44.72-8.57 45.16-7.52 45.16-6.15ZM84.37-3.56L84.37-3.56Q84.22-2.88 83.76-2.47 83.3-2.05 82.66-1.81 82.03-1.56 81.37-1.49 80.71-1.42 80.17-1.42L80.17-1.42Q79.93-1.42 79.71-1.44 79.49-1.46 79.24-1.46L79.24-1.46Q79-1.46 79-1.22 79-0.98 78.75-0.88L78.75-0.88Q78.51-0.98 78.27-1.03 78.02-1.07 77.78-1.07L77.78-1.07Q77.44-1.07 77.12-1.03 76.8-0.98 76.51-0.98L76.51-0.98Q76.12-0.98 75.95-1.07 75.78-1.17 75.65-1.29 75.53-1.42 75.41-1.56 75.29-1.71 75.04-1.81L75.04-1.81Q74.7-1.95 74.48-1.86 74.26-1.76 73.82-2.15L73.82-2.15Q73.24-2.64 72.82-3.34 72.41-4.05 72.02-4.83 71.63-5.62 71.19-6.4 70.75-7.18 70.16-7.76L70.16-7.76 69.77-7.76Q68.89-7.76 68.55-7.03L68.55-7.03Q68.31-7.18 68.06-7.4 67.82-7.62 67.52-7.76L67.52-7.76Q66.4-7.42 65.18-7.18 63.96-6.93 62.74-6.93L62.74-6.93 62.06-6.93Q61.76-6.93 61.42-7.03L61.42-7.03Q60.93-6.84 60.54-6.57 60.15-6.3 59.66-6.3L59.66-6.3Q59.37-6.3 58.98-6.49L58.98-6.49Q58.69-6.49 58.71-6.25 58.74-6.01 58.39-6.01L58.39-6.01 57.95-6.01Q57.27-6.01 56.61-5.96 55.95-5.91 55.27-5.91L55.27-5.91Q54.34-5.91 53.36-6.15L53.36-6.15Q53.12-6.01 52.83-6.01L52.83-6.01Q52.63-5.91 52.53-5.69 52.44-5.47 52.34-5.3 52.24-5.13 52.07-5 51.9-4.88 51.61-4.93L51.61-4.93Q51.51-4.35 51.12-4 50.73-3.66 50.73-2.98L50.73-2.98Q50.19-2.69 49.85-2.25 49.51-1.81 49.16-1.32 48.82-0.83 48.46-0.39 48.09 0.05 47.55 0.29L47.55 0.29Q47.31 0.59 47.41 1.22L47.41 1.22Q46.87 1.66 46.09 2 45.31 2.34 44.62 2.34L44.62 2.34Q43.21 2.34 42.67 0.83L42.67 0.83Q42.67 0.34 42.74-0.22 42.82-0.78 42.96-1.29 43.11-1.81 43.4-2.22 43.7-2.64 44.23-2.83L44.23-2.83Q44.23-3.27 43.94-3.44 43.65-3.61 43.7-4.05L43.7-4.05Q45.01-4.69 45.99-5.71 46.97-6.74 47.77-7.89 48.58-9.03 49.41-10.21 50.24-11.38 51.26-12.3L51.26-12.3 51.26-13.33Q52.73-14.89 53.17-16.85L53.17-16.85Q53.71-16.94 53.88-17.33 54.05-17.72 54.05-18.26L54.05-18.26Q54.29-18.26 54.37-18.48 54.44-18.7 54.78-18.6L54.78-18.6Q55.22-19.78 55.76-20.75 56.29-21.73 56.83-22.73 57.37-23.73 57.78-24.8 58.2-25.88 58.39-27.2L58.39-27.2Q59.08-27.25 59.15-27.86 59.22-28.47 59.32-28.96L59.32-28.96Q60.05-29.64 60.42-30.57 60.79-31.49 61.08-32.5 61.37-33.5 61.74-34.5 62.1-35.5 62.79-36.28L62.79-36.28 62.79-36.43Q62.79-36.67 62.59-36.74 62.4-36.82 62.4-37.06L62.4-37.06Q62.45-37.11 62.45-37.16L62.45-37.16Q63.03-37.4 63.33-37.96 63.62-38.53 64.2-38.77L64.2-38.77Q65.23-37.94 66.01-37.77 66.79-37.6 68.06-37.5L68.06-37.5Q68.7-36.82 68.77-35.86 68.84-34.91 69.09-33.98L69.09-33.98Q69.48-32.42 69.94-30.93 70.41-29.44 70.65-27.88L70.65-27.88Q70.8-26.95 71.19-26.12 71.58-25.29 71.72-24.41L71.72-24.41Q71.82-23.73 71.72-22.88 71.63-22.02 71.92-21.39L71.92-21.39 72.26-20.61Q72.5-20.07 72.68-19.48 72.85-18.9 72.99-18.31L72.99-18.31Q73.38-16.85 73.7-15.16 74.02-13.48 74.7-12.11L74.7-12.11Q74.95-11.62 75.46-11.43 75.97-11.23 76.61-11.16 77.24-11.08 77.85-11.11 78.46-11.13 78.9-11.13L78.9-11.13 79.39-11.13Q79.68-11.13 79.98-11.04L79.98-11.04Q80.17-10.64 80.17-10.35L80.17-10.35Q80.17-9.77 79.78-9.42 79.39-9.08 79.39-8.64L79.39-8.64Q79.39-8.4 79.58-8.11L79.58-8.11Q79.39-8.15 79-8.15L79-8.15Q77.88-8.15 76.8-7.76L76.8-7.76Q77.19-6.93 77.85-6.37 78.51-5.81 79.24-5.32L79.24-5.32Q79.73-5.71 80.27-5.71L80.27-5.71Q80.85-5.71 81.37-5.44 81.88-5.18 82.47-5.18L82.47-5.18Q82.91-5.18 83.1-5.32L83.1-5.32Q83.49-4.88 83.74-4.42 83.98-3.96 84.37-3.56ZM69.09-11.38L69.09-11.38Q68.99-12.21 68.77-12.57 68.55-12.94 68.4-13.48L68.4-13.48Q68.21-14.16 68.13-14.94 68.06-15.72 67.91-16.46L67.91-16.46Q67.57-18.12 67.16-19.78 66.74-21.44 66.11-23L66.11-23Q66.3-23.29 66.3-23.54L66.3-23.54 66.3-23.68Q65.86-24.17 65.67-24.88 65.47-25.59 65.3-26.29 65.13-27 64.86-27.61 64.59-28.22 64.01-28.61L64.01-28.61Q63.86-28.32 63.86-27.93L63.86-27.93Q63.86-27.59 63.94-27.29 64.01-27 64.01-26.66L64.01-26.66Q63.52-26.42 63.3-25.9 63.08-25.39 62.59-25.1L62.59-25.1Q62.2-23.54 61.47-22.14 60.74-20.75 59.93-19.38 59.13-18.02 58.39-16.63 57.66-15.23 57.22-13.72L57.22-13.72Q56.59-13.28 56.37-12.6 56.15-11.91 56.15-11.23L56.15-11.23Q56.59-10.99 57.15-10.96 57.71-10.94 58.25-10.94 58.78-10.94 59.27-10.84 59.76-10.74 60.15-10.35L60.15-10.35Q60.79-10.55 61.54-10.62 62.3-10.69 62.79-11.04L62.79-11.04Q63.76-10.69 64.89-10.69L64.89-10.69Q65.47-10.69 66.04-10.79 66.6-10.89 67.13-11.04L67.13-11.04Q67.57-10.94 67.82-10.72 68.06-10.5 68.55-10.55L68.55-10.55Q68.79-10.74 68.84-10.96 68.89-11.18 69.09-11.38ZM120.31-3.56L120.31-3.56Q120.16-2.88 119.69-2.47 119.23-2.05 118.6-1.81 117.96-1.56 117.3-1.49 116.64-1.42 116.11-1.42L116.11-1.42Q115.86-1.42 115.64-1.44 115.42-1.46 115.18-1.46L115.18-1.46Q114.93-1.46 114.93-1.22 114.93-0.98 114.69-0.88L114.69-0.88Q114.45-0.98 114.2-1.03 113.96-1.07 113.71-1.07L113.71-1.07Q113.37-1.07 113.05-1.03 112.74-0.98 112.44-0.98L112.44-0.98Q112.05-0.98 111.88-1.07 111.71-1.17 111.59-1.29 111.47-1.42 111.35-1.56 111.22-1.71 110.98-1.81L110.98-1.81Q110.64-1.95 110.42-1.86 110.2-1.76 109.76-2.15L109.76-2.15Q109.17-2.64 108.76-3.34 108.34-4.05 107.95-4.83 107.56-5.62 107.12-6.4 106.68-7.18 106.1-7.76L106.1-7.76 105.71-7.76Q104.83-7.76 104.48-7.03L104.48-7.03Q104.24-7.18 104-7.4 103.75-7.62 103.46-7.76L103.46-7.76Q102.34-7.42 101.12-7.18 99.89-6.93 98.67-6.93L98.67-6.93 97.99-6.93Q97.7-6.93 97.36-7.03L97.36-7.03Q96.87-6.84 96.48-6.57 96.09-6.3 95.6-6.3L95.6-6.3Q95.31-6.3 94.91-6.49L94.91-6.49Q94.62-6.49 94.65-6.25 94.67-6.01 94.33-6.01L94.33-6.01 93.89-6.01Q93.21-6.01 92.55-5.96 91.89-5.91 91.2-5.91L91.2-5.91Q90.28-5.91 89.3-6.15L89.3-6.15Q89.06-6.01 88.76-6.01L88.76-6.01Q88.57-5.91 88.47-5.69 88.37-5.47 88.27-5.3 88.18-5.13 88.01-5 87.83-4.88 87.54-4.93L87.54-4.93Q87.44-4.35 87.05-4 86.66-3.66 86.66-2.98L86.66-2.98Q86.13-2.69 85.78-2.25 85.44-1.81 85.1-1.32 84.76-0.83 84.39-0.39 84.03 0.05 83.49 0.29L83.49 0.29Q83.24 0.59 83.34 1.22L83.34 1.22Q82.81 1.66 82.02 2 81.24 2.34 80.56 2.34L80.56 2.34Q79.14 2.34 78.61 0.83L78.61 0.83Q78.61 0.34 78.68-0.22 78.75-0.78 78.9-1.29 79.05-1.81 79.34-2.22 79.63-2.64 80.17-2.83L80.17-2.83Q80.17-3.27 79.88-3.44 79.58-3.61 79.63-4.05L79.63-4.05Q80.95-4.69 81.93-5.71 82.9-6.74 83.71-7.89 84.51-9.03 85.34-10.21 86.17-11.38 87.2-12.3L87.2-12.3 87.2-13.33Q88.66-14.89 89.1-16.85L89.1-16.85Q89.64-16.94 89.81-17.33 89.98-17.72 89.98-18.26L89.98-18.26Q90.23-18.26 90.3-18.48 90.37-18.7 90.72-18.6L90.72-18.6Q91.15-19.78 91.69-20.75 92.23-21.73 92.77-22.73 93.3-23.73 93.72-24.8 94.13-25.88 94.33-27.2L94.33-27.2Q95.01-27.25 95.09-27.86 95.16-28.47 95.26-28.96L95.26-28.96Q95.99-29.64 96.35-30.57 96.72-31.49 97.01-32.5 97.31-33.5 97.67-34.5 98.04-35.5 98.72-36.28L98.72-36.28 98.72-36.43Q98.72-36.67 98.53-36.74 98.33-36.82 98.33-37.06L98.33-37.06Q98.38-37.11 98.38-37.16L98.38-37.16Q98.97-37.4 99.26-37.96 99.55-38.53 100.14-38.77L100.14-38.77Q101.16-37.94 101.95-37.77 102.73-37.6 104-37.5L104-37.5Q104.63-36.82 104.7-35.86 104.78-34.91 105.02-33.98L105.02-33.98Q105.41-32.42 105.88-30.93 106.34-29.44 106.58-27.88L106.58-27.88Q106.73-26.95 107.12-26.12 107.51-25.29 107.66-24.41L107.66-24.41Q107.76-23.73 107.66-22.88 107.56-22.02 107.85-21.39L107.85-21.39 108.2-20.61Q108.44-20.07 108.61-19.48 108.78-18.9 108.93-18.31L108.93-18.31Q109.32-16.85 109.64-15.16 109.95-13.48 110.64-12.11L110.64-12.11Q110.88-11.62 111.39-11.43 111.91-11.23 112.54-11.16 113.18-11.08 113.79-11.11 114.4-11.13 114.84-11.13L114.84-11.13 115.32-11.13Q115.62-11.13 115.91-11.04L115.91-11.04Q116.11-10.64 116.11-10.35L116.11-10.35Q116.11-9.77 115.72-9.42 115.32-9.08 115.32-8.64L115.32-8.64Q115.32-8.4 115.52-8.11L115.52-8.11Q115.32-8.15 114.93-8.15L114.93-8.15Q113.81-8.15 112.74-7.76L112.74-7.76Q113.13-6.93 113.79-6.37 114.45-5.81 115.18-5.32L115.18-5.32Q115.67-5.71 116.2-5.71L116.2-5.71Q116.79-5.71 117.3-5.44 117.81-5.18 118.4-5.18L118.4-5.18Q118.84-5.18 119.04-5.32L119.04-5.32Q119.43-4.88 119.67-4.42 119.91-3.96 120.31-3.56ZM105.02-11.38L105.02-11.38Q104.92-12.21 104.7-12.57 104.48-12.94 104.34-13.48L104.34-13.48Q104.14-14.16 104.07-14.94 104-15.72 103.85-16.46L103.85-16.46Q103.51-18.12 103.09-19.78 102.68-21.44 102.04-23L102.04-23Q102.24-23.29 102.24-23.54L102.24-23.54 102.24-23.68Q101.8-24.17 101.6-24.88 101.41-25.59 101.24-26.29 101.07-27 100.8-27.61 100.53-28.22 99.94-28.61L99.94-28.61Q99.8-28.32 99.8-27.93L99.8-27.93Q99.8-27.59 99.87-27.29 99.94-27 99.94-26.66L99.94-26.66Q99.46-26.42 99.24-25.9 99.02-25.39 98.53-25.1L98.53-25.1Q98.14-23.54 97.4-22.14 96.67-20.75 95.87-19.38 95.06-18.02 94.33-16.63 93.6-15.23 93.16-13.72L93.16-13.72Q92.52-13.28 92.3-12.6 92.08-11.91 92.08-11.23L92.08-11.23Q92.52-10.99 93.08-10.96 93.64-10.94 94.18-10.94 94.72-10.94 95.21-10.84 95.7-10.74 96.09-10.35L96.09-10.35Q96.72-10.55 97.48-10.62 98.23-10.69 98.72-11.04L98.72-11.04Q99.7-10.69 100.82-10.69L100.82-10.69Q101.41-10.69 101.97-10.79 102.53-10.89 103.07-11.04L103.07-11.04Q103.51-10.94 103.75-10.72 104-10.5 104.48-10.55L104.48-10.55Q104.73-10.74 104.78-10.96 104.83-11.18 105.02-11.38ZM156.29-8.79L156.53-8.79Q156.53-8.3 156.26-7.98 156-7.67 155.63-7.42 155.26-7.18 154.9-6.98 154.53-6.79 154.24-6.49L154.24-6.49Q154.04-6.3 153.97-6.03 153.9-5.76 153.7-5.66L153.7-5.66Q153.41-5.42 153.07-5.37 152.72-5.32 152.36-5.25 151.99-5.18 151.65-5.05 151.31-4.93 151.06-4.59L151.06-4.59Q148.77-4.35 146.55-3.96 144.33-3.56 141.98-3.56L141.98-3.56Q141.54-3.56 141.03-3.49 140.52-3.42 140.08-3.37L140.08-3.37Q139.05-3.27 138.05-3.22 137.05-3.17 136.03-3.17L136.03-3.17Q134.61-3.17 133.19-3.3 131.78-3.42 130.41-3.71L130.41-3.71Q130.07-3.96 129.63-4.1 129.19-4.25 128.73-4.39 128.26-4.54 127.87-4.74 127.48-4.93 127.28-5.32L127.28-5.32Q126.55-5.37 125.99-5.62 125.43-5.86 124.97-6.18 124.5-6.49 124.01-6.84 123.53-7.18 122.89-7.42L122.89-7.42Q122.4-8.11 121.89-8.76 121.38-9.42 120.64-9.86L120.64-9.86Q120.5-10.79 120.18-11.72 119.86-12.65 119.55-13.55 119.23-14.45 119.01-15.38 118.79-16.31 118.79-17.29L118.79-17.29Q118.79-17.97 118.98-18.95 119.18-19.92 119.5-20.92 119.81-21.92 120.25-22.8 120.69-23.68 121.13-24.22L121.13-24.22Q121.28-24.37 121.47-24.46 121.67-24.56 121.82-24.76L121.82-24.76Q122.26-25.24 122.74-25.56 123.23-25.88 123.77-26.32L123.77-26.32Q123.96-26.51 124.09-26.76 124.21-27 124.45-27.2L124.45-27.2Q124.6-27.29 124.87-27.25 125.14-27.2 125.33-27.34L125.33-27.34Q125.53-27.49 125.53-27.69 125.53-27.88 125.67-28.03L125.67-28.03Q125.72-28.08 125.97-28.05 126.21-28.03 126.26-28.03L126.26-28.03Q126.6-28.03 127.04-28.49 127.48-28.96 127.77-29.1L127.77-29.1Q128.12-29.3 128.46-29.37 128.8-29.44 129.19-29.64L129.19-29.64Q129.73-29.93 130.24-30.1 130.75-30.27 131.29-30.52L131.29-30.52Q131.58-30.62 131.83-30.86 132.07-31.1 132.31-31.2L132.31-31.2Q132.75-31.35 133.27-31.42 133.78-31.49 134.24-31.57 134.71-31.64 135.17-31.76 135.63-31.88 136.03-32.23L136.03-32.23 136.42-32.23Q137.29-32.23 138.12-32.47 138.95-32.71 139.83-32.71L139.83-32.71Q140.08-32.71 140.57-32.62L140.57-32.62Q140.96-32.86 141.45-32.86L141.45-32.86Q142.28-32.86 143.11-32.45 143.94-32.03 144.81-32.03L144.81-32.03 145.11-32.03Q145.3-32.03 145.5-32.08L145.5-32.08Q146.03-31.54 146.79-31.49 147.55-31.45 148.09-31.05L148.09-31.05Q148.43-30.76 148.65-30.37 148.87-29.98 149.01-29.54L149.01-29.54 149.31-28.66Q149.45-28.22 149.7-27.88L149.7-27.88Q149.45-26.12 148.26-25.07 147.06-24.02 145.25-24.02L145.25-24.02Q144.57-24.02 144.11-24.19 143.64-24.37 143.28-24.56 142.91-24.76 142.52-24.95 142.13-25.15 141.64-25.24L141.64-25.24Q142.18-26.22 142.32-27.34L142.32-27.34Q141.79-27.59 141.25-27.69 140.71-27.78 140.22-28.03L140.22-28.03Q138.91-27.69 137.66-27.56 136.42-27.44 135.34-26.51L135.34-26.51Q135.1-26.56 134.83-26.61 134.56-26.66 134.32-26.66L134.32-26.66Q134.02-26.66 133.14-26.25 132.27-25.83 131.26-25.29 130.26-24.76 129.36-24.22 128.46-23.68 128.12-23.49L128.12-23.49Q127.72-23.24 127.43-22.9 127.14-22.56 126.85-22.19 126.55-21.83 126.26-21.51 125.97-21.19 125.53-21.04L125.53-21.04Q125.43-20.51 125.19-20.12 124.94-19.73 124.65-19.29L124.65-19.29Q124.6-18.41 124.48-17.53 124.36-16.65 124.36-15.77L124.36-15.77 124.36-15.14Q124.36-14.84 124.45-14.6L124.45-14.6Q124.94-13.96 125.26-13.18 125.58-12.4 126.36-12.11L126.36-12.11Q126.41-11.91 126.33-11.87 126.26-11.82 126.21-11.62L126.21-11.62Q126.5-11.08 126.97-10.77 127.43-10.45 127.92-10.13 128.41-9.81 128.85-9.47 129.29-9.13 129.53-8.59L129.53-8.59Q130.26-8.59 130.92-8.35 131.58-8.11 132.19-7.81 132.8-7.52 133.36-7.28 133.93-7.03 134.51-7.03L134.51-7.03Q135.05-7.03 135.49-7.18L135.49-7.18Q136.76-6.79 138.05-6.62 139.35-6.45 140.66-6.45L140.66-6.45Q142.28-6.45 143.89-6.64 145.5-6.84 147.11-6.98L147.11-6.98Q147.7-7.08 148.23-7.08 148.77-7.08 149.31-7.18L149.31-7.18Q149.99-7.28 150.6-7.81 151.21-8.35 151.8-8.59L151.8-8.59Q152.33-8.25 153.07-8.25L153.07-8.25Q153.9-8.25 154.68-8.52 155.46-8.79 156.29-8.79L156.29-8.79Z" opacity="1" transform="matrix(1,0,0,1,0,0)" fill="#3d9970" class="undefined-text-0" data-fill-palette-color="primary" id="text-0"></path></svg></g></svg></g><g transform="matrix(1,0,0,1,106.1992126453287,169.10011901712824)"><svg viewBox="0 0 183.12157470934253 84.54486095724313" height="84.54486095724313" width="183.12157470934253"><g transform="matrix(1,0,0,1,0,0)"><svg width="183.12157470934253" viewBox="4 -35.20000076293945 77.6500015258789 35.85000228881836" height="84.54486095724313" data-palette-color="#ff9966"><path d="M7.25 0Q6 0 5.3-0.65 4.6-1.3 4.6-2.45L4.6-2.45 4.5-28.6Q4.5-31 4.42-32.4 4.35-33.8 4-34.85L4-34.85Q7.1-35.2 14.55-35.2L14.55-35.2Q21.7-35.2 25.5-30.78 29.3-26.35 29.3-17.6L29.3-17.6Q29.3-8.55 25.58-4.28 21.85 0 14.75 0L14.75 0 7.25 0ZM9.1-1.95L14.55-1.95Q19.45-1.95 21.85-5.55 24.25-9.15 24.25-17.35L24.25-17.35Q24.25-25.55 21.83-29.4 19.4-33.25 14.55-33.25L14.55-33.25 9.05-33.25 9.1-1.95ZM54.75-6.6Q55.5-6.3 55.5-5.45L55.5-5.45Q55.5-4.9 55.15-4.05L55.15-4.05Q54.25-1.75 51.85-0.55 49.45 0.65 46.15 0.65L46.15 0.65Q40.6 0.65 37.42-2.8 34.25-6.25 34.25-12.65L34.25-12.65Q34.25-18.95 37.4-22.55 40.55-26.15 46.35-26.15L46.35-26.15Q50.55-26.15 53.12-24.25 55.7-22.35 55.7-18.85L55.7-18.85Q55.7-15.15 52.7-13.2 49.7-11.25 44.45-11.25L44.45-11.25Q41.8-11.25 39.15-11.55L39.15-11.55Q39.75-2.35 47.3-2.35L47.3-2.35Q50-2.35 51.97-3.48 53.95-4.6 54.75-6.6L54.75-6.6ZM46.15-24.25Q42.9-24.25 41.02-21.45 39.15-18.65 39.1-13.4L39.1-13.4Q40.15-13.3 42.45-13.2L42.45-13.2Q46.25-13.2 48.55-14.58 50.85-15.95 50.85-19.5L50.85-19.5Q50.85-22.1 49.5-23.18 48.15-24.25 46.15-24.25L46.15-24.25ZM79.09-25.85Q80.4-25.85 81.02-25.35 81.65-24.85 81.65-23.8L81.65-23.8Q81.65-22.55 81.09-21.3L81.09-21.3 72.95-0.15Q71.4 0.6 69.9 0.6L69.9 0.6Q67.84 0.6 67.3-1.05L67.3-1.05 59.65-22.3Q59.6-22.5 59.25-23.38 58.9-24.25 58.4-24.75L58.4-24.75Q59.4-25.85 61.05-25.85L61.05-25.85Q62.1-25.85 62.82-25.38 63.55-24.9 63.75-24L63.75-24 70.55-2.3 76.8-22.4Q77.05-23.8 77.05-24.15L77.05-24.15Q77.05-25.05 76.8-25.4L76.8-25.4Q77.9-25.85 79.09-25.85L79.09-25.85Z" opacity="1" transform="matrix(1,0,0,1,0,0)" fill="#ff9966" class="undefined-text-1" data-fill-palette-color="secondary" id="text-1"></path></svg></g></svg></g></svg></g></svg></g><g transform="matrix(1,0,0,1,151.8878547657527,0)"><svg viewBox="0 0 91.7442904684945 175.26868116229065" height="175.26868116229065" width="91.7442904684945"><g><svg xmlns="http://www.w3.org/2000/svg" xmlns:xlink="http://www.w3.org/1999/xlink" version="1.1" x="0" y="0" viewBox="19.682355880737305 3.5 35.572967529296875 67.95874786376953" enable-background="new 0 0 75 75" xml:space="preserve" height="175.26868116229065" width="91.7442904684945" class="icon-icon-0" data-fill-palette-color="accent" id="icon-0"><path d="M21.2 59.5c-1.1-2.6-4.2-12.2 3.8-24.7C36 18 31.7 3.5 31.7 3.5S46 8.8 41.7 37.5c-1 6.5-0.9 9 2 9.4 5 0.7 3.1-19.7 3.1-19.7s3.9 2 6.8 12.1c1.5 5.3 1.8 9.5 1.6 12.5-1 18.1-16.5 19.6-16.5 19.6S26.9 73 21.2 59.5z" fill="#ff9966" data-fill-palette-color="accent"></path></svg></g></svg></g><g></g></svg></g><defs></defs></svg><rect width="211.99147203561023" height="247.2" fill="none" stroke="none" visibility="hidden"></rect></g></svg></g></svg>