<svg xmlns="http://www.w3.org/2000/svg" version="1.1" xmlns:xlink="http://www.w3.org/1999/xlink" xmlns:svgjs="http://svgjs.dev/svgjs" width="2000" height="1563" viewBox="0 0 2000 1563"><g transform="matrix(1,0,0,1,-0.5181776504063009,0.6327935222672068)"><svg viewBox="0 0 316 247" data-background-color="#00ffef" preserveAspectRatio="xMidYMid meet" height="1563" width="2000" xmlns="http://www.w3.org/2000/svg" xmlns:xlink="http://www.w3.org/1999/xlink"><g id="tight-bounds" transform="matrix(1,0,0,1,0.0818720687641985,-0.09999999999999432)"><svg viewBox="0 0 315.8362558624716 247.2" height="247.2" width="315.8362558624716"><rect width="315.8362558624716" height="247.2" fill="url(#8df9bf7e-0bd5-4c80-b121-4f67bb38e7b7)" mask="url(&quot;#76be7e41-02e5-4f3f-a66e-c7ac6d36a3fd&quot;)" data-fill-palette-color="accent"></rect><rect width="315.8362558624716" height="247.2" fill="url(#c706db37-7018-4ad5-bf02-bad12c148f5a)" mask="url(&quot;#23abf692-aa4e-40f1-a9f1-a9cee6a29363&quot;)" data-fill-palette-color="primary"></rect><g><svg viewBox="0 0 395.52 309.56719561219177" height="247.2" width="315.8362558624716"><g transform="matrix(1,0,0,1,0,232.17686712538506)"><svg viewBox="0 0 395.52 77.39032848680668" height="77.39032848680668" width="395.52"><g id="textblocktransform"><svg viewBox="0 0 395.52 77.39032848680668" height="77.39032848680668" width="395.52" id="textblock"><g><svg viewBox="0 0 395.52 77.39032848680668" height="77.39032848680668" width="395.52"><g transform="matrix(1,0,0,1,0,0)"><svg width="395.52" viewBox="3.95 -36.05 278.52000000000004 54.503125" height="77.39032848680668" data-palette-color="url(#c706db37-7018-4ad5-bf02-bad12c148f5a)"></svg></g></svg></g></svg></g></svg></g><g transform="matrix(1,0,0,1,91.26585757230824,0)"><svg viewBox="0 0 212.9882848553835 213.9068679375337" height="213.9068679375337" width="212.9882848553835"><g><svg xmlns="http://www.w3.org/2000/svg" xmlns:xlink="http://www.w3.org/1999/xlink" version="1.1" x="0" y="0" viewBox="8.052000000000003 5.1295 41.562 41.74124999999999" enable-background="new 0 0 58 52" xml:space="preserve" height="213.9068679375337" width="212.9882848553835" class="icon-icon-0" data-fill-palette-color="accent" id="icon-0"></svg></g></svg></g><g></g></svg></g><defs><linearGradient x1="0" x2="1" y1="0.5" y2="0.5" id="c706db37-7018-4ad5-bf02-bad12c148f5a"><stop stop-color="#f00b51" offset="0"></stop><stop stop-color="#730062" offset="1"></stop></linearGradient><linearGradient x1="0" x2="1" y1="0.5" y2="0.5" id="8df9bf7e-0bd5-4c80-b121-4f67bb38e7b7"><stop stop-color="#ffa62e" offset="0"></stop><stop stop-color="#f71b3d" offset="1"></stop></linearGradient></defs><mask id="23abf692-aa4e-40f1-a9f1-a9cee6a29363"><g id="SvgjsG1004"><svg viewBox="0 0 315.8362558624716 247.2" height="247.2" width="315.8362558624716"><g><svg viewBox="0 0 395.52 309.56719561219177" height="247.2" width="315.8362558624716"><g transform="matrix(1,0,0,1,0,232.17686712538506)"><svg viewBox="0 0 395.52 77.39032848680668" height="77.39032848680668" width="395.52"><g id="SvgjsG1003"><svg viewBox="0 0 395.52 77.39032848680668" height="77.39032848680668" width="395.52" id="SvgjsSvg1002"><g><svg viewBox="0 0 395.52 77.39032848680668" height="77.39032848680668" width="395.52"><g transform="matrix(1,0,0,1,0,0)"><svg width="395.52" viewBox="3.95 -36.05 278.52000000000004 54.503125" height="77.39032848680668" data-palette-color="url(#c706db37-7018-4ad5-bf02-bad12c148f5a)"><path d="M4-15.35Q3.95-15.7 3.95-16.5L3.95-16.5Q3.95-18.45 4.35-20.3 4.75-22.15 5.5-24.35L5.5-24.35Q6.25-26.4 8.35-28.45 10.45-30.5 13.05-31.83 15.65-33.15 17.75-33.15L17.75-33.15Q19.9-33.15 21.95-31.58 24-30 24.55-28L24.55-28Q24.65-27.4 24.65-27.2L24.65-27.2Q24.65-26.45 24.23-26.08 23.8-25.7 23.1-25.7L23.1-25.7Q22.55-25.7 22.25-25.75L22.25-25.75Q22.1-25.75 21.8-25.95L21.8-25.95Q20.35-26.75 19-26.75L19-26.75Q16.45-26.75 13.95-24.1L13.95-24.1Q9.7-19.65 9.7-13.5L9.7-13.5Q9.7-11.3 10.15-9.25L10.15-9.25Q10.65-6.95 11.93-5.88 13.2-4.8 15.35-4.8L15.35-4.8Q16.1-4.8 17-4.95L17-4.95Q20.15-5.35 22.8-6.88 25.45-8.4 28.65-10.95L28.65-10.95Q29.4-11.55 31.3-13.45L31.3-13.45 32.3-14.5Q32.95-15.15 33.43-15.43 33.9-15.7 34.3-15.7L34.3-15.7Q34.95-15.7 35.9-15.05L35.9-15.05Q36.95-14.3 36.95-13.15L36.95-13.15Q36.95-12.35 36.4-11.65L36.4-11.65Q36.2-11.3 35.3-10.03 34.4-8.75 33.55-7.75 32.7-6.75 31.85-6.05L31.85-6.05Q27.25-2 22.25-0.6L22.25-0.6Q20.05 0 17.85 0L17.85 0Q13.8 0 10.68-2.05 7.55-4.1 5.8-7.43 4.05-10.75 4-14.35L4-14.35 4-15.35ZM49.4-3.35Q47.85-2.4 45.85-2.4L45.85-2.4Q43.65-2.4 41.62-3.53 39.6-4.65 38.4-6.75 37.2-8.85 37.4-11.55L37.4-11.55 37.65-12.75Q37.95-14.55 38.15-15.4L38.15-15.4Q38.6-17.25 39.95-18 41.3-18.75 43.55-19.2L43.55-19.2Q45-19.5 46.4-19.5L46.4-19.5Q50.8-19.5 53.8-16.55L53.8-16.55Q55.4-14.95 55.4-12.65L55.4-12.65Q55.4-10.4 53.75-7.8L53.75-7.8Q51.85-4.85 49.4-3.35L49.4-3.35ZM45.2-16.95Q44.4-15 43.5-12.1L43.5-12.1 43-10.6 43.35-10.45Q43.35-10.1 43.37-9.38 43.4-8.65 43.55-8.15L43.55-8.15Q44.1-6.6 44.8-6.25L44.8-6.25Q45.1-6.1 45.67-6.4 46.25-6.7 46.7-7.1L46.7-7.1Q47.4-7.7 48.95-9.6L48.95-9.6Q50.1-10.9 50.1-12.7L50.1-12.7Q50.1-14.25 49.22-15.5 48.35-16.75 46.8-17.2L46.8-17.2Q46.65-17.25 46.25-17.25L46.25-17.25Q45.3-17.25 45.2-16.95L45.2-16.95ZM78.3-5.85Q78.4-5 79.05-3.65L79.05-3.65Q79.15-3.4 79.27-3.1 79.4-2.8 79.55-2.4L79.55-2.4Q77.85-1.45 76.85-1.45L76.85-1.45Q76.1-1.45 75.45-1.93 74.8-2.4 74-3.45L74-3.45Q73.4-4.15 73-4.15L73-4.15Q72.6-4.15 72.15-3.5L72.15-3.5Q71.15-2 69.67-1.25 68.2-0.5 66.55-0.5L66.55-0.5Q64.7-0.5 62.97-1.38 61.25-2.25 60.3-3.75L60.3-3.75Q59.3-5.3 59.3-8.35L59.3-8.35Q59.3-10.55 59.9-12.8 60.5-15.05 61.6-16.5L61.6-16.5Q62.8-18.15 64.45-19.13 66.1-20.1 68.1-20.1L68.1-20.1Q68.75-20.1 69.1-20.05L69.1-20.05Q69.25-20 69.55-20L69.55-20Q70.7-20 70.7-21.1L70.7-21.1 70.65-21.5Q69.95-27.25 69.4-29.95L69.4-29.95Q69.35-30.2 69.25-30.75 69.15-31.3 69.15-31.65L69.15-31.65Q69.15-32.35 69.45-32.88 69.75-33.4 70.5-33.75L70.5-33.75Q70.8-33.9 71.2-33.9L71.2-33.9Q72.25-33.9 73.4-33.23 74.55-32.55 74.75-31.7L74.75-31.7Q75.5-28.6 76.15-23.65L76.15-23.65 77.05-16.05Q77.85-9.25 78.3-5.85L78.3-5.85ZM64.95-12.1Q64.1-9.65 64.1-7.6L64.1-7.6Q64.1-4.75 66.1-3.4L66.1-3.4Q66.9-3.85 67.37-4.42 67.85-5 68.5-6.1L68.5-6.1 69.05-7.05Q70.2-8.7 70.57-10.75 70.95-12.8 71.05-15.95L71.05-15.95Q71.1-16.4 70.87-16.98 70.65-17.55 70.4-17.6L70.4-17.6Q70-17.7 69.05-17.38 68.1-17.05 67.85-16.7L67.85-16.7Q66.7-15.35 66.02-14.35 65.35-13.35 64.95-12.1L64.95-12.1ZM89.24-23.3Q89.14-23 88.52-22.65 87.89-22.3 87.49-22L87.49-22 86.09-22.75Q84.04-23.85 83.29-24.5L83.29-24.5Q82.89-24.8 82.89-25.25L82.89-25.25Q82.89-25.55 83.12-25.78 83.34-26 83.79-26L83.79-26Q85.74-26 88.54-25L88.54-25Q88.84-24.95 89.09-24.33 89.34-23.7 89.24-23.3L89.24-23.3ZM84.74-14Q84.89-14.65 84.94-14.95 84.99-15.25 84.99-15.6L84.99-15.6Q84.99-16.3 85.42-16.7 85.84-17.1 87.04-17.1L87.04-17.1Q88.44-17.1 89.52-16.23 90.59-15.35 90.84-13.95L90.84-13.95Q90.99-13.25 91.04-12.4 91.09-11.55 91.09-11.3L91.09-11.3 91.79-2.75Q91.94-1.4 91.42-0.68 90.89 0.05 89.44 0.05L89.44 0.05Q88.19 0.05 87.32-0.65 86.44-1.35 86.24-2.45L86.24-2.45 84.94-13.05 84.74-14ZM104.04-18.85Q104.04-18.55 103.94-18.07 103.84-17.6 103.89-17.45L103.89-17.45Q107.34-18.2 109.74-18.2L109.74-18.2Q113.49-18.2 115.39-14.6L115.39-14.6Q116.94-11.55 116.94-7.85L116.94-7.85Q116.94-6.9 116.74-5.1L116.74-5.1Q116.59-3.9 115.79-3.18 114.99-2.45 113.89-2.45L113.89-2.45Q112.74-2.45 112.27-2.88 111.79-3.3 111.72-3.85 111.64-4.4 111.64-5.6L111.64-5.6 111.59-6.65Q111.49-9.65 111.19-11.85L111.19-11.85Q111.04-12.75 110.52-13.13 109.99-13.5 109.14-13.5L109.14-13.5Q108.34-13.5 107.24-13.25L107.24-13.25Q105.54-12.8 104.97-12.55 104.39-12.3 103.29-11.5L103.29-11.5Q102.94-11.25 102.79-10.5 102.64-9.75 102.64-9.65L102.64-9.65Q101.99-6.45 101.24-2L101.24-2Q101.19-1.8 101.04-1.05 100.89-0.3 100.47 0.03 100.04 0.35 99.24 0.25L99.24 0.25Q96.09-0.15 96.04-2.4L96.04-2.4Q95.99-5.3 96.49-9.25L96.49-9.25Q96.84-12.1 97.14-13.85L97.14-13.85Q97.24-14.65 97.42-15.8 97.59-16.95 97.74-18.45L97.74-18.45Q97.89-19.6 98.04-20.15 98.19-20.7 98.74-21.08 99.29-21.45 100.44-21.45L100.44-21.45Q101.89-21.45 102.84-20.8 103.79-20.15 104.04-18.95L104.04-18.95 104.04-18.85ZM138.19-12.6Q138.04-9 137.69-7.15 137.34-5.3 136.31-3.63 135.29-1.95 132.99 0.25L132.99 0.25 134.74 1.2Q136.34 2.1 137.09 2.45L137.09 2.45Q139.34 3.5 140.49 5.13 141.64 6.75 141.64 8.7L141.64 8.7Q141.64 11.1 140.04 13.45L140.04 13.45Q138.34 15.95 135.79 17.18 133.24 18.4 130.34 18.45L130.34 18.45Q128.19 18.5 125.94 17.75L125.94 17.75Q124.89 17.4 123.84 16.23 122.79 15.05 122.16 13.6 121.54 12.15 121.59 11.05L121.59 11.05Q121.64 10.8 121.79 10.53 121.94 10.25 122.14 10.2L122.14 10.2Q122.19 10.15 122.34 10.15L122.34 10.15Q122.49 10.15 122.76 10.28 123.04 10.4 123.14 10.45L123.14 10.45Q123.39 10.55 123.49 10.9L123.49 10.9Q124.19 12.45 125.04 13.35 125.89 14.25 127.29 14.15L127.29 14.15Q132.44 13.8 134.34 11.3L134.34 11.3Q134.99 10.5 135.41 9.47 135.84 8.45 135.84 7.55L135.84 7.55Q135.84 6.25 135.21 5.65 134.59 5.05 133.29 4.8L133.29 4.8Q131.89 4.55 130.61 4.1 129.34 3.65 127.54 2.75L127.54 2.75Q126.64 2.3 126.29 1.95 125.94 1.6 125.94 1.1L125.94 1.1Q125.94 0.6 126.54-1.45L126.54-1.45Q126.64-1.75 125.61-2.45 124.59-3.15 123.84-3.6L123.84-3.6Q121.14-5.2 121.14-8.8L121.14-8.8Q121.14-9.8 121.29-10.7L121.29-10.7Q122.19-16.2 126.64-18.5L126.64-18.5Q127.69-19.05 128.84-19.05L128.84-19.05Q129.69-19.05 130.59-18.8 131.49-18.55 131.64-18.5L131.64-18.5 132.69-18.2Q133.44-18 134.14-18L134.14-18Q135.09-18 135.86-18.35 136.64-18.7 137.44-19.45L137.44-19.45Q138.59-20.4 139.89-20.4L139.89-20.4Q140.84-20.4 141.59-19.88 142.34-19.35 142.69-18.35L142.69-18.35Q142.79-17.95 142.79-17.7L142.79-17.7Q142.79-17.25 142.64-17L142.64-17Q142.49-16.8 141.79-15.7L141.79-15.7Q141.44-15.05 141.14-14.6 140.84-14.15 140.19-13.6L140.19-13.6Q139.74-13.35 139.24-13.23 138.74-13.1 138.46-13 138.19-12.9 138.19-12.6L138.19-12.6ZM127.69-13.35Q126.14-11.55 126.14-9.7L126.14-9.7Q126.14-8.4 126.96-7.23 127.79-6.05 129.49-5.2L129.49-5.2Q131.39-5.95 132.44-7.8 133.49-9.65 133.49-11.85L133.49-11.85Q133.49-13.2 133.09-14.3 132.69-15.4 131.49-16L131.49-16Q129.19-15.1 127.69-13.35L127.69-13.35ZM178.63-35.6Q179.88-35.1 179.88-34.2L179.88-34.2Q179.88-33.3 178.63-31.9L178.63-31.9Q178.08-31.95 177.03-31.95L177.03-31.95Q174.73-31.95 172.63-31.33 170.53-30.7 168.28-29.4L168.28-29.4Q167.23-28.75 166.48-27.75L166.48-27.75Q165.93-27.15 165.93-26.35L165.93-26.35Q165.93-25 167.43-23.75L167.43-23.75Q168.88-22.25 172.18-18.3L172.18-18.3 173.33-17.1Q175.78-14.45 177.21-12.6 178.63-10.75 179.63-8.35L179.63-8.35Q180.03-7.3 180.03-6.45L180.03-6.45Q180.03-4.3 178.38-2.5L178.38-2.5Q176.48-0.4 173.98 0.58 171.48 1.55 168.33 1.8L168.33 1.8Q167.93 1.85 167.38 1.9 166.83 1.95 166.13 1.95L166.13 1.95Q165.68 1.95 164.78 1.85L164.78 1.85Q163.68 1.9 162.48 1.48 161.28 1.05 160.28 0.25L160.28 0.25Q158.38-1.35 158.38-3.3L158.38-3.3Q158.38-4.95 159.78-6.65L159.78-6.65Q160.48-6.55 160.61-6.23 160.73-5.9 160.66-5.5 160.58-5.1 160.58-4.85L160.58-4.85Q160.58-4.7 160.68-4.4L160.68-4.4Q162.63-3.5 165.33-3.5L165.33-3.5Q168.33-3.5 171.01-4.53 173.68-5.55 174.28-7.05L174.28-7.05Q174.63-8.05 172.58-10.58 170.53-13.1 167.98-15.5L167.98-15.5Q165.58-17.65 163.63-19.75L163.63-19.75Q162.53-20.95 161.91-22.53 161.28-24.1 161.28-25.8L161.28-25.8Q161.28-28.1 162.46-30.15 163.63-32.2 165.98-33.5L165.98-33.5Q170.48-36.05 175.18-36.05L175.18-36.05Q175.83-36.05 177.03-35.95L177.03-35.95Q178.13-35.85 178.63-35.6L178.63-35.6ZM184.23-18.65Q183.88-19.05 183.76-19.5 183.63-19.95 183.53-20.75L183.53-20.75Q183.98-21.8 185.18-21.8L185.18-21.8Q185.78-21.7 186.03-21.7L186.03-21.7Q187.03-21.7 187.28-22.3 187.53-22.9 187.53-23.7 187.53-24.5 187.53-24.95L187.53-24.95 187.68-27.95Q187.73-28.95 187.81-30.43 187.88-31.9 187.98-33.85L187.98-33.85Q188.03-34.9 188.51-35.4 188.98-35.9 189.83-35.9L189.83-35.9Q190.43-35.9 190.78-35.8L190.78-35.8Q192.83-35.35 193.53-34.5 194.23-33.65 194.48-31.95L194.48-31.95Q194.53-31.6 194.38-30.5L194.38-30.5 193.48-22.7Q193.43-22.4 193.33-21.98 193.23-21.55 193.23-21.35L193.23-21.35Q193.23-20.9 193.73-20.75 194.23-20.6 195.58-20.65L195.58-20.65Q197.88-21.15 199.08-21.3L199.08-21.3Q199.33-21.35 199.88-21.35L199.88-21.35Q200.48-21.35 200.68-21.2L200.68-21.2Q200.88-21.1 201.01-20.63 201.13-20.15 201.13-19.55L201.13-19.55Q201.13-19 201.01-18.55 200.88-18.1 200.68-18.05L200.68-18.05Q199.33-17.65 197.48-17.4L197.48-17.4Q195.28-17 194.23-16.7L194.23-16.7Q193.68-16.55 193.13-15.95 192.58-15.35 192.53-14.85L192.53-14.85Q192.43-12.4 192.38-9.85L192.38-9.85Q192.33-7.9 192.53-5.95L192.53-5.95Q192.68-4.3 193.18-3.58 193.68-2.85 194.68-2.85L194.68-2.85Q195.48-2.85 196.98-3.4L196.98-3.4Q197.78-3.75 198.38-3.75L198.38-3.75Q199.33-3.75 199.73-2.7L199.73-2.7Q199.88-2.35 199.88-2L199.88-2Q199.88-1.35 199.41-0.95 198.93-0.55 198.13-0.25L198.13-0.25Q196.63 0.3 195.08 0.35L195.08 0.35Q192.98 0.35 191.13-0.68 189.28-1.7 188.21-3.55 187.13-5.4 187.28-7.8L187.28-7.8Q187.33-8.75 187.33-10.8L187.33-10.8Q187.33-14.05 187.08-17.4L187.08-17.4Q187.03-17.7 186.73-17.82 186.43-17.95 185.73-18.1L185.73-18.1Q184.58-18.3 184.23-18.65L184.23-18.65ZM209.33-21Q210.58-20.65 211.1-20.15 211.63-19.65 211.63-18.8L211.63-18.8Q211.63-18.4 211.48-17.75L211.48-17.75Q210.93-15.5 210.88-13.25L210.88-13.25Q210.83-10.7 211.68-8.55L211.68-8.55Q211.98-7.8 212.25-7.48 212.53-7.15 212.93-7.15L212.93-7.15Q213.43-7.15 214.23-8.05L214.23-8.05Q216.08-10.25 216.98-12.45 217.88-14.65 218.08-17L218.08-17Q218.23-18.55 218.58-18.95L218.58-18.95Q218.78-19.15 219.23-19.2 219.68-19.25 220.53-19.25L220.53-19.25Q221.88-19.15 222.4-19 222.93-18.85 223.13-18.5 223.33-18.15 223.33-17.35L223.33-17.35 223.28-15Q223.28-14.25 223.23-12.8L223.23-12.8Q223.08-8.3 222.98-6.1L222.98-6.1Q222.93-4.35 221.93-1.7L221.93-1.7Q221.83-1.55 221.38-1.28 220.93-1 220.58-0.95L220.58-0.95Q220.48-0.95 220.15-1.28 219.83-1.6 219.68-1.85L219.68-1.85Q219.33-2.65 218.88-4L218.88-4 218.48-4.95 218.38-5.25 218.23-5.1 217.43-4.6Q216.83-4.1 216.13-3.8L216.13-3.8Q214.98-3.1 213.38-3.1L213.38-3.1Q211.38-3.1 209.58-4.23 207.78-5.35 206.73-7.3L206.73-7.3Q205.03-10.3 205.03-14.25L205.03-14.25Q205.03-16.25 205.58-19.3L205.58-19.3Q205.68-20.05 206.53-20.6L206.53-20.6Q207.28-21.15 208.28-21.15L208.28-21.15Q208.78-21.15 209.33-21L209.33-21ZM247.78-5.85Q247.88-5 248.53-3.65L248.53-3.65Q248.63-3.4 248.75-3.1 248.88-2.8 249.03-2.4L249.03-2.4Q247.33-1.45 246.33-1.45L246.33-1.45Q245.58-1.45 244.93-1.93 244.28-2.4 243.48-3.45L243.48-3.45Q242.88-4.15 242.48-4.15L242.48-4.15Q242.08-4.15 241.63-3.5L241.63-3.5Q240.63-2 239.15-1.25 237.68-0.5 236.03-0.5L236.03-0.5Q234.18-0.5 232.45-1.38 230.73-2.25 229.78-3.75L229.78-3.75Q228.78-5.3 228.78-8.35L228.78-8.35Q228.78-10.55 229.38-12.8 229.98-15.05 231.08-16.5L231.08-16.5Q232.28-18.15 233.93-19.13 235.58-20.1 237.58-20.1L237.58-20.1Q238.23-20.1 238.58-20.05L238.58-20.05Q238.73-20 239.03-20L239.03-20Q240.18-20 240.18-21.1L240.18-21.1 240.13-21.5Q239.43-27.25 238.88-29.95L238.88-29.95Q238.83-30.2 238.73-30.75 238.63-31.3 238.63-31.65L238.63-31.65Q238.63-32.35 238.93-32.88 239.23-33.4 239.98-33.75L239.98-33.75Q240.28-33.9 240.68-33.9L240.68-33.9Q241.73-33.9 242.88-33.23 244.03-32.55 244.23-31.7L244.23-31.7Q244.98-28.6 245.63-23.65L245.63-23.65 246.53-16.05Q247.33-9.25 247.78-5.85L247.78-5.85ZM234.43-12.1Q233.58-9.65 233.58-7.6L233.58-7.6Q233.58-4.75 235.58-3.4L235.58-3.4Q236.38-3.85 236.85-4.42 237.33-5 237.98-6.1L237.98-6.1 238.53-7.05Q239.68-8.7 240.05-10.75 240.43-12.8 240.53-15.95L240.53-15.95Q240.58-16.4 240.35-16.98 240.13-17.55 239.88-17.6L239.88-17.6Q239.48-17.7 238.53-17.38 237.58-17.05 237.33-16.7L237.33-16.7Q236.18-15.35 235.5-14.35 234.83-13.35 234.43-12.1L234.43-12.1ZM258.72-23.3Q258.62-23 258-22.65 257.37-22.3 256.97-22L256.97-22 255.57-22.75Q253.52-23.85 252.77-24.5L252.77-24.5Q252.37-24.8 252.37-25.25L252.37-25.25Q252.37-25.55 252.6-25.78 252.82-26 253.27-26L253.27-26Q255.22-26 258.02-25L258.02-25Q258.32-24.95 258.57-24.33 258.82-23.7 258.72-23.3L258.72-23.3ZM254.22-14Q254.37-14.65 254.42-14.95 254.47-15.25 254.47-15.6L254.47-15.6Q254.47-16.3 254.9-16.7 255.32-17.1 256.52-17.1L256.52-17.1Q257.92-17.1 259-16.23 260.07-15.35 260.32-13.95L260.32-13.95Q260.47-13.25 260.52-12.4 260.57-11.55 260.57-11.3L260.57-11.3 261.27-2.75Q261.42-1.4 260.9-0.68 260.37 0.05 258.92 0.05L258.92 0.05Q257.67 0.05 256.8-0.65 255.92-1.35 255.72-2.45L255.72-2.45 254.42-13.05 254.22-14ZM276.47-3.35Q274.92-2.4 272.92-2.4L272.92-2.4Q270.72-2.4 268.7-3.53 266.67-4.65 265.47-6.75 264.27-8.85 264.47-11.55L264.47-11.55 264.72-12.75Q265.02-14.55 265.22-15.4L265.22-15.4Q265.67-17.25 267.02-18 268.37-18.75 270.62-19.2L270.62-19.2Q272.07-19.5 273.47-19.5L273.47-19.5Q277.87-19.5 280.87-16.55L280.87-16.55Q282.47-14.95 282.47-12.65L282.47-12.65Q282.47-10.4 280.82-7.8L280.82-7.8Q278.92-4.85 276.47-3.35L276.47-3.35ZM272.27-16.95Q271.47-15 270.57-12.1L270.57-12.1 270.07-10.6 270.42-10.45Q270.42-10.1 270.45-9.38 270.47-8.65 270.62-8.15L270.62-8.15Q271.17-6.6 271.87-6.25L271.87-6.25Q272.17-6.1 272.75-6.4 273.32-6.7 273.77-7.1L273.77-7.1Q274.47-7.7 276.02-9.6L276.02-9.6Q277.17-10.9 277.17-12.7L277.17-12.7Q277.17-14.25 276.3-15.5 275.42-16.75 273.87-17.2L273.87-17.2Q273.72-17.25 273.32-17.25L273.32-17.25Q272.37-17.25 272.27-16.95L272.27-16.95Z" opacity="1" transform="matrix(1,0,0,1,0,0)" fill="white" class="undefined-text-0" id="SvgjsPath1001"></path></svg></g></svg></g></svg></g></svg></g><g transform="matrix(1,0,0,1,91.26585757230824,0)"><svg viewBox="0 0 212.9882848553835 213.9068679375337" height="213.9068679375337" width="212.9882848553835"><g><svg xmlns="http://www.w3.org/2000/svg" xmlns:xlink="http://www.w3.org/1999/xlink" version="1.1" x="0" y="0" viewBox="8.052000000000003 5.1295 41.562 41.74124999999999" enable-background="new 0 0 58 52" xml:space="preserve" height="213.9068679375337" width="212.9882848553835" class="icon-icon-0" data-fill-palette-color="accent" id="SvgjsSvg1000"></svg></g></svg></g><g></g></svg></g><defs><mask></mask></defs></svg></g></mask><mask id="76be7e41-02e5-4f3f-a66e-c7ac6d36a3fd"><g id="SvgjsG1027"><svg viewBox="0 0 315.8362558624716 247.2" height="247.2" width="315.8362558624716"><g><svg viewBox="0 0 395.52 309.56719561219177" height="247.2" width="315.8362558624716"><g transform="matrix(1,0,0,1,0,232.17686712538506)"><svg viewBox="0 0 395.52 77.39032848680668" height="77.39032848680668" width="395.52"><g id="SvgjsG1026"><svg viewBox="0 0 395.52 77.39032848680668" height="77.39032848680668" width="395.52" id="SvgjsSvg1025"><g><svg viewBox="0 0 395.52 77.39032848680668" height="77.39032848680668" width="395.52"><g transform="matrix(1,0,0,1,0,0)"><svg width="395.52" viewBox="3.95 -36.05 278.52000000000004 54.503125" height="77.39032848680668" data-palette-color="url(#c706db37-7018-4ad5-bf02-bad12c148f5a)"></svg></g></svg></g></svg></g></svg></g><g transform="matrix(1,0,0,1,91.26585757230824,0)"><svg viewBox="0 0 212.9882848553835 213.9068679375337" height="213.9068679375337" width="212.9882848553835"><g><svg xmlns="http://www.w3.org/2000/svg" xmlns:xlink="http://www.w3.org/1999/xlink" version="1.1" x="0" y="0" viewBox="8.052000000000003 5.1295 41.562 41.74124999999999" enable-background="new 0 0 58 52" xml:space="preserve" height="213.9068679375337" width="212.9882848553835" class="icon-icon-0" data-fill-palette-color="accent" id="SvgjsSvg1024"><path fill-rule="evenodd" clip-rule="evenodd" d="M49.611 16.958c0-1.65-1.227-3.564-2.725-4.254L31.559 5.647c-1.498-0.69-3.951-0.69-5.45 0l-15.331 7.057c-1.499 0.69-2.726 2.604-2.726 4.254v18.083c0 1.65 1.227 3.564 2.726 4.255l15.331 7.058c1.499 0.689 3.952 0.689 5.45 0l15.33-7.058c1.498-0.69 2.725-2.604 2.725-4.255L49.611 16.958zM44.351 19.476l-11.574 5.327c-0.999 0.459-1.816 1.736-1.816 2.836V39.92c0 1.1-0.9 2-2 2h-0.262c-1.1 0-2-0.9-2-2V27.638c0-1.101-0.817-2.376-1.816-2.836l-11.571-5.325c-0.999-0.46-1.44-1.654-0.98-2.653l0.109-0.239c0.46-0.999 1.653-1.44 2.652-0.98l11.921 5.488c0.999 0.46 2.634 0.46 3.633 0l11.924-5.488c0.999-0.46 2.192-0.019 2.652 0.98l0.109 0.239C45.791 17.822 45.35 19.016 44.351 19.476z" fill="white"></path></svg></g></svg></g><g></g></svg></g><defs><linearGradient x1="0" x2="1" y1="0.5" y2="0.5" id="SvgjsLinearGradient1023"><stop stop-color="#f00b51" offset="0"></stop><stop stop-color="#730062" offset="1"></stop></linearGradient><mask></mask></defs><mask id="SvgjsMask1022"><g id="SvgjsG1021"><svg viewBox="0 0 315.8362558624716 247.2" height="247.2" width="315.8362558624716"><g><svg viewBox="0 0 395.52 309.56719561219177" height="247.2" width="315.8362558624716"><g transform="matrix(1,0,0,1,0,232.17686712538506)"><svg viewBox="0 0 395.52 77.39032848680668" height="77.39032848680668" width="395.52"><g id="SvgjsG1020"><svg viewBox="0 0 395.52 77.39032848680668" height="77.39032848680668" width="395.52" id="SvgjsSvg1019"><g><svg viewBox="0 0 395.52 77.39032848680668" height="77.39032848680668" width="395.52"><g transform="matrix(1,0,0,1,0,0)"><svg width="395.52" viewBox="3.95 -36.05 278.52000000000004 54.503125" height="77.39032848680668" data-palette-color="url(#c706db37-7018-4ad5-bf02-bad12c148f5a)"></svg></g></svg></g></svg></g></svg></g><g transform="matrix(1,0,0,1,91.26585757230824,0)"><svg viewBox="0 0 212.9882848553835 213.9068679375337" height="213.9068679375337" width="212.9882848553835"><g><svg xmlns="http://www.w3.org/2000/svg" xmlns:xlink="http://www.w3.org/1999/xlink" version="1.1" x="0" y="0" viewBox="8.052000000000003 5.1295 41.562 41.74124999999999" enable-background="new 0 0 58 52" xml:space="preserve" height="213.9068679375337" width="212.9882848553835" class="icon-icon-0" data-fill-palette-color="accent" id="SvgjsSvg1017"></svg></g></svg></g><g></g></svg></g><defs><mask></mask></defs></svg></g></mask></svg></g></mask></svg><rect width="315.8362558624716" height="247.2" fill="none" stroke="none" visibility="hidden"></rect></g></svg></g></svg>